<svg width="15" height="15" viewBox="0 0 15 15" fill="none" xmlns="http://www.w3.org/2000/svg">
<path d="M7.26562 0C11.2793 0 14.5312 3.25195 14.5312 7.26562C14.5312 11.2793 11.2793 14.5312 7.26562 14.5312C3.25195 14.5312 0 11.2793 0 7.26562C0 3.25195 3.25195 0 7.26562 0ZM3.86719 8.55469H7.26562V10.6348C7.26562 10.957 7.64648 11.1035 7.85156 10.8984L11.1914 7.5293C11.3379 7.38281 11.3379 7.17773 11.1914 7.03125L7.85156 3.66211C7.61719 3.42773 7.26562 3.60352 7.26562 3.92578V5.97656H3.86719C3.66211 5.97656 3.51562 6.15234 3.51562 6.32812V8.20312C3.51562 8.4082 3.66211 8.55469 3.86719 8.55469Z" fill="#102136"/>
</svg>
