<svg width="15" height="15" viewBox="0 0 15 15" fill="none" xmlns="http://www.w3.org/2000/svg">
<g clip-path="url(#clip0_8513_770)">
<path d="M4.20156 6.3C4.20156 5.9 4.50156 5.5 5.00156 5.5C5.50156 5.5 5.80156 5.8 5.80156 6.3C5.80156 7.3 6.60156 8.1 7.60156 8.1C8.60156 8.1 9.40156 7.3 9.40156 6.3C9.40156 5.9 9.70156 5.5 10.2016 5.5C10.7016 5.5 11.0016 5.8 11.0016 6.3C11.0016 8.1 9.50156 9.5 7.80156 9.5C6.10156 9.5 4.20156 8.1 4.20156 6.3ZM14.2016 3.6V13.3C14.2016 14.3 13.4016 15 12.4016 15H2.40156C1.40156 15 0.601562 14.2 0.601562 13.3V3.6L3.10156 0H11.9016L14.2016 3.6ZM2.90156 3H12.1016L11.1016 1.5H3.90156L2.90156 3ZM12.8016 4.5H2.20156V13.3C2.20156 13.4 2.30156 13.5 2.40156 13.5H12.4016C12.5016 13.5 12.6016 13.4 12.6016 13.3V4.5H12.8016Z" fill="#102136"/>
</g>
<defs>
<clipPath id="clip0_8513_770">
<rect width="15" height="15" fill="white"/>
</clipPath>
</defs>
</svg>
