<svg width="70" height="70" viewBox="0 0 70 70" fill="none" xmlns="http://www.w3.org/2000/svg">
<rect width="70" height="70" rx="35" fill="#FFC224"/>
<g clip-path="url(#clip0_8512_1981)">
<path d="M51.9167 17.5H18.0833C17.7612 17.5 17.5 17.7661 17.5 18.0944V41.87C17.5 42.1983 17.7612 42.4644 18.0833 42.4644H28.6166C28.6341 42.6623 28.6627 42.8573 28.6971 43.0505L25.4975 46.936C25.2903 47.1873 25.3223 47.5623 25.569 47.7734C25.6385 47.8329 25.7207 47.8751 25.809 47.8965L29.3312 48.7536L30.7714 52.1417C30.8995 52.4429 31.2429 52.5814 31.5385 52.4509C31.6218 52.4142 31.6954 52.3582 31.7537 52.2873L34.9481 48.4083C34.9656 48.4083 34.9825 48.4083 35 48.4083C35.0175 48.4083 35.0344 48.4083 35.0519 48.4083L38.2462 52.2873C38.4532 52.5389 38.8211 52.5719 39.068 52.361C39.1375 52.3016 39.1925 52.2265 39.2286 52.1417L40.6688 48.7536L44.191 47.8965C44.5044 47.8204 44.698 47.4999 44.6233 47.1806C44.6022 47.0906 44.5609 47.0068 44.5025 46.936L41.3029 43.0505C41.3373 42.8573 41.3659 42.6623 41.3834 42.4644H51.9167C52.2388 42.4644 52.5 42.1983 52.5 41.87V18.0944C52.5 17.7661 52.2388 17.5 51.9167 17.5ZM31.4668 50.7859L30.2855 48.0101C30.2125 47.8384 30.0645 47.7118 29.8859 47.6683L26.9984 46.9651L29.0926 44.4217C29.1037 44.4479 29.1183 44.4717 29.1293 44.4978C29.2052 44.6761 29.2874 44.8455 29.3784 45.0137C29.4157 45.0839 29.4554 45.1528 29.4951 45.2212C29.5752 45.3571 29.6599 45.4902 29.7494 45.6206C29.8118 45.7116 29.8772 45.7989 29.9442 45.8881C30.0224 45.9891 30.1029 46.0878 30.1875 46.1853C30.2721 46.2828 30.3707 46.3903 30.4681 46.489C30.5398 46.5621 30.6139 46.6329 30.6897 46.7024C30.7528 46.7618 30.8093 46.8242 30.8752 46.8807C30.9412 46.9372 31.003 46.9752 31.066 47.0252C31.0946 47.0477 31.1191 47.0739 31.1482 47.0959C31.2007 47.1363 31.2562 47.1714 31.3098 47.21C31.3938 47.2695 31.4767 47.3336 31.5636 47.3883C31.7292 47.4965 31.9002 47.5952 32.0734 47.6855C32.1399 47.72 32.2076 47.7515 32.2752 47.7836C32.4308 47.8581 32.5873 47.9259 32.7448 47.9869C32.7903 48.0041 32.8353 48.0237 32.8808 48.0398C33.1017 48.1189 33.3269 48.1854 33.5551 48.2389L33.5615 48.2407L31.4668 50.7859ZM36.0955 47.0935C35.828 47.1511 35.5565 47.1875 35.2835 47.2023H35.2759C35.1838 47.207 35.0916 47.2136 34.9988 47.2136C34.9061 47.2136 34.8139 47.207 34.7218 47.2023H34.7142C34.4417 47.1874 34.1709 47.1512 33.9039 47.0941L33.8549 47.084C33.7511 47.0608 33.6484 47.0323 33.5469 47.0026C33.5043 46.9901 33.4612 46.9788 33.4192 46.9651C33.3462 46.9419 33.2745 46.9146 33.2027 46.8884C33.131 46.8623 33.0627 46.8367 32.9939 46.8076C32.9513 46.7892 32.9093 46.7696 32.8673 46.7482C32.7717 46.7042 32.6766 46.6596 32.5838 46.6103L32.5372 46.5841C32.2967 46.4531 32.0666 46.3032 31.8488 46.136C31.7275 46.0438 31.6155 45.9422 31.5052 45.8417C31.3749 45.7232 31.2504 45.598 31.1325 45.4667C31.0858 45.4155 31.0357 45.3668 30.9913 45.3139C30.8284 45.1186 30.6798 44.9114 30.5468 44.694C30.527 44.6619 30.5101 44.628 30.4885 44.5947C30.3645 44.3835 30.2553 44.1636 30.1618 43.9367C30.1537 43.9165 30.1443 43.8963 30.1367 43.8773C30.0334 43.6172 29.9503 43.3494 29.8883 43.076C29.8883 43.0653 29.8801 43.057 29.8772 43.0463C29.7924 42.6602 29.7498 42.2656 29.75 41.87C29.7483 38.9155 32.0973 36.5191 34.9968 36.5172C37.8963 36.5154 40.2482 38.9091 40.25 41.8635C40.2502 42.2636 40.2064 42.6626 40.1193 43.0528C40.1164 43.0629 40.1106 43.0718 40.1082 43.0819C40.0463 43.3549 39.9634 43.6226 39.8603 43.8825C39.8522 43.9033 39.8428 43.9241 39.8341 43.942C39.7409 44.1675 39.6321 44.386 39.5086 44.5958C39.4893 44.6291 39.4718 44.6642 39.4503 44.6974C39.3172 44.9146 39.1689 45.1216 39.0063 45.3168C38.9626 45.3691 38.913 45.4167 38.8669 45.4678C38.7474 45.6003 38.6214 45.7267 38.4895 45.8464C38.3787 45.9469 38.2684 46.0485 38.1477 46.14C38.0269 46.2316 37.919 46.3088 37.8012 46.3855L37.7942 46.3897C37.6886 46.458 37.5807 46.521 37.471 46.5805C37.4494 46.5924 37.4284 46.6048 37.4068 46.6161C37.3187 46.6631 37.2318 46.7053 37.1391 46.7463C37.0924 46.7677 37.0463 46.7897 36.9991 46.8093C36.9337 46.8373 36.8673 46.8616 36.8008 46.886C36.7343 46.9104 36.652 46.9419 36.5762 46.9656C36.5359 46.9787 36.4951 46.99 36.4542 47.0019C36.351 47.0316 36.2472 47.0613 36.1422 47.0839L36.0955 47.0935ZM43.0016 46.9633L40.1141 47.6665C39.9355 47.71 39.7875 47.8366 39.7145 48.0083L38.5332 50.7859L36.4385 48.2425H36.4437C36.6729 48.1891 36.8988 48.1225 37.1204 48.0428C37.1642 48.0273 37.2062 48.0089 37.2499 47.9928C37.4127 47.9298 37.5731 47.8609 37.7306 47.7842C37.7948 47.7539 37.8589 47.7248 37.9219 47.6915C38.0969 47.5987 38.2719 47.4983 38.4399 47.3883C38.521 47.336 38.5986 47.2772 38.6773 47.2207C38.7357 47.1797 38.794 47.1423 38.8523 47.0989C38.8832 47.0751 38.9107 47.0471 38.941 47.0228C38.9993 46.974 39.067 46.933 39.1265 46.8819C39.186 46.8308 39.2467 46.763 39.3085 46.7072C39.3855 46.6358 39.4613 46.5639 39.5348 46.4896C39.6309 46.3918 39.7238 46.2911 39.8137 46.1877C39.8982 46.0902 39.9787 45.9915 40.0575 45.8905C40.1246 45.8031 40.1899 45.7121 40.2523 45.623C40.3422 45.4934 40.4273 45.3603 40.5061 45.2247C40.5469 45.1558 40.5866 45.0863 40.6227 45.0155C40.7134 44.8479 40.796 44.6765 40.8707 44.5014C40.8812 44.4711 40.8963 44.4467 40.9074 44.4199L43.0016 46.9633ZM51.3333 41.2756H41.3869C41.0704 37.681 37.9539 35.0285 34.4262 35.3511C31.3372 35.6336 28.8891 38.128 28.6119 41.2756H18.6667V18.6888H51.3333V41.2756Z" fill="white"/>
<path d="M20.4193 19.8779C20.0971 19.8779 19.8359 20.1441 19.8359 20.4723V22.8499H21.0026V21.0667H22.7526V19.8779H20.4193Z" fill="white"/>
<path d="M49.5833 19.8779H47.25V21.0667H49V22.8499H50.1667V20.4723C50.1667 20.144 49.9055 19.8779 49.5833 19.8779Z" fill="white"/>
<path d="M49 37.1152V38.8984H47.25V40.0871H49.5833C49.9055 40.0871 50.1667 39.821 50.1667 39.4927V37.1152H49Z" fill="white"/>
<path d="M21.0026 38.8984V37.1152H19.8359V39.4927C19.8359 39.821 20.0971 40.0871 20.4193 40.0871H22.7526V38.8984H21.0026Z" fill="white"/>
<path d="M42 24.0381H28V25.2269H42V24.0381Z" fill="white"/>
<path d="M45.5 27.6045H24.5V28.7933H45.5V27.6045Z" fill="white"/>
<path d="M34.9974 37.709C32.7422 37.709 30.9141 39.5718 30.9141 41.8697C30.9166 44.1665 32.7433 46.0278 34.9974 46.0304C37.2526 46.0304 39.0807 44.1676 39.0807 41.8697C39.0807 39.5718 37.2526 37.709 34.9974 37.709ZM34.9974 44.8417C33.3866 44.8417 32.0807 43.511 32.0807 41.8697C32.0826 40.2292 33.3874 38.8997 34.9974 38.8978C36.6082 38.8978 37.9141 40.2284 37.9141 41.8697C37.9141 43.511 36.6082 44.8417 34.9974 44.8417Z" fill="white"/>
</g>
<defs>
<clipPath id="clip0_8512_1981">
<rect width="35" height="35" fill="white" transform="translate(17.5 17.5)"/>
</clipPath>
</defs>
</svg>
