<svg width="70" height="70" viewBox="0 0 70 70" fill="none" xmlns="http://www.w3.org/2000/svg">
<rect width="70" height="70" rx="35" fill="#5751E1"/>
<g clip-path="url(#clip0_8512_1972)">
<path d="M26.5116 43.5H43.4884C46.2519 43.5 48.5 41.2571 48.5 38.5V24C48.5 21.2429 46.2519 19 43.4884 19H26.5116C23.7481 19 21.5 21.2429 21.5 24V46C21.5 48.7571 23.7481 51 26.5116 51H43.4884C46.2519 51 48.5 48.7571 48.5 46C48.5 45.3096 47.9391 44.75 47.2471 44.75C46.5551 44.75 45.9942 45.3096 45.9942 46C45.9942 47.3784 44.87 48.5 43.4884 48.5H26.5116C25.13 48.5 24.0058 47.3784 24.0058 46C24.0058 44.6216 25.13 43.5 26.5116 43.5ZM24.0058 24C24.0058 22.6216 25.13 21.5 26.5116 21.5H43.4884C44.87 21.5 45.9942 22.6216 45.9942 24V38.5C45.9942 39.8784 44.87 41 43.4884 41H26.5116C25.5993 41 24.7434 41.2444 24.0058 41.6709V24ZM29.08 27.4375C29.08 26.7471 29.6409 26.1875 30.3329 26.1875H39.7297C40.4217 26.1875 40.9826 26.7471 40.9826 27.4375C40.9826 28.1279 40.4217 28.6875 39.7297 28.6875H30.3329C29.6409 28.6875 29.08 28.1279 29.08 27.4375Z" fill="white"/>
</g>
<defs>
<clipPath id="clip0_8512_1972">
<rect width="27" height="32" fill="white" transform="translate(21.5 19)"/>
</clipPath>
</defs>
</svg>
