<svg width="13" height="13" viewBox="0 0 13 13" fill="none" xmlns="http://www.w3.org/2000/svg">
<path d="M12.593 6.29688C12.593 9.77539 9.77461 12.5938 6.29609 12.5938C2.81758 12.5938 -0.000781536 9.77539 -0.000781536 6.29688C-0.000781536 2.81836 2.81758 0 6.29609 0C9.77461 0 12.593 2.81836 12.593 6.29688ZM5.17891 3.35156V6.29688H3.37617C3.09687 6.29688 2.96992 6.62695 3.14766 6.83008L6.06758 9.72461C6.19453 9.85156 6.37227 9.85156 6.49922 9.72461L9.41914 6.83008C9.59687 6.62695 9.46992 6.29688 9.19062 6.29688H7.41328V3.35156C7.41328 3.19922 7.26094 3.04688 7.10859 3.04688H5.48359C5.30586 3.04688 5.17891 3.19922 5.17891 3.35156Z" fill="white"/>
</svg>
