<svg width="70" height="70" viewBox="0 0 70 70" fill="none" xmlns="http://www.w3.org/2000/svg">
<rect width="70" height="70" rx="35" fill="#1BCBE3"/>
<g clip-path="url(#clip0_8512_1962)">
<path d="M48.6966 27.5011C48.6966 27.5011 37.4058 22.4994 37.4028 22.4981C36.6403 22.1676 35.8319 22 35 22C34.1681 22 33.3597 22.1676 32.5972 22.4981C32.5942 22.4994 21.3034 27.5011 21.3034 27.5011C19.904 28.11 19 29.5221 19 31.1C19 32.6779 19.904 34.09 21.3034 34.6989L24 35.8934V44.1C24 46.2505 25.6823 48 27.75 48H42.25C44.3177 48 46 46.2505 46 44.1V40.6335C46 39.9155 45.4404 39.3335 44.75 39.3335C44.0596 39.3335 43.5 39.9155 43.5 40.6335V44.1C43.5 44.8168 42.9393 45.4 42.25 45.4H27.75C27.0608 45.4 26.5 44.8168 26.5 44.1V37.001C26.5 37.001 32.5942 39.7007 32.5972 39.702C33.3597 40.0324 34.1681 40.2 35 40.2C35.8318 40.2 36.6402 40.0324 37.4028 39.702C37.4058 39.7007 48.6966 34.6989 48.6966 34.6989C50.096 34.09 51 32.6779 51 31.1C51 29.5221 50.096 28.11 48.6966 27.5011ZM47.7301 32.301C47.7271 32.3023 36.4373 37.3036 36.4373 37.3036C35.9821 37.5003 35.4986 37.6 34.9999 37.6C34.5013 37.6 34.0178 37.5003 33.5627 37.3037C32.4414 36.8069 22.2728 32.3023 22.2698 32.301C21.8022 32.0983 21.5 31.6269 21.5 31.1C21.5 30.5731 21.8022 30.1017 22.2699 29.899C22.2729 29.8977 33.5627 24.8963 33.5627 24.8963C34.0178 24.6997 34.5014 24.6 35 24.6C35.4986 24.6 35.9822 24.6997 36.4373 24.8963C36.4373 24.8963 47.7271 29.8977 47.7301 29.899C48.1978 30.1017 48.5 30.5731 48.5 31.1C48.5 31.6269 48.1978 32.0983 47.7301 32.301Z" fill="white"/>
<path d="M49.75 37.1611C49.0596 37.1611 48.5 37.7431 48.5 38.4611V44.1001C48.5 44.8181 49.0596 45.4001 49.75 45.4001C50.4404 45.4001 51 44.8181 51 44.1001V38.4611C51 37.7431 50.4404 37.1611 49.75 37.1611Z" fill="white"/>
</g>
<defs>
<clipPath id="clip0_8512_1962">
<rect width="32" height="26" fill="white" transform="translate(19 22)"/>
</clipPath>
</defs>
</svg>
