<svg width="30" height="30" viewBox="0 0 30 30" fill="none" xmlns="http://www.w3.org/2000/svg">
<rect width="30" height="30" rx="15" fill="#3B5998"/>
<path d="M22.4531 14.875C22.4531 18.5078 19.7871 21.5254 16.3008 22.0527V16.9844H18L18.3223 14.875H16.3008V13.5273C16.3008 12.9414 16.5938 12.3848 17.502 12.3848H18.4102V10.5977C18.4102 10.5977 17.5898 10.4512 16.7695 10.4512C15.1289 10.4512 14.0449 11.4766 14.0449 13.293V14.875H12.1992V16.9844H14.0449V22.0527C10.5586 21.5254 7.92188 18.5078 7.92188 14.875C7.92188 10.8613 11.1738 7.60938 15.1875 7.60938C19.2012 7.60938 22.4531 10.8613 22.4531 14.875Z" fill="white"/>
</svg>
