<svg width="65" height="65" viewBox="0 0 65 65" fill="none" xmlns="http://www.w3.org/2000/svg">
<g filter="url(#filter0_d_8512_2097)">
<rect width="60" height="60" rx="30" fill="#1BCBE3" shape-rendering="crispEdges"/>
<rect x="0.5" y="0.5" width="59" height="59" rx="29.5" stroke="#019AAF" shape-rendering="crispEdges"/>
<g clip-path="url(#clip0_8512_2097)">
<path d="M44.9333 22.0671C40.8111 20.3559 36.7278 18.6059 32.6833 16.8171C31.8278 16.5059 30.9333 16.3504 30 16.3504C29.0667 16.3504 28.1722 16.5059 27.3167 16.8171L15.0667 22.0671C14.2889 22.4559 13.6667 22.9809 13.2 23.6421C12.7333 24.3032 12.5 25.0615 12.5 25.9171C12.5 26.7726 12.7333 27.5309 13.2 28.1921C13.6667 28.8532 14.2889 29.3393 15.0667 29.6504L17.9833 30.9337V39.5671C17.9833 40.7337 18.3722 41.7059 19.15 42.4837C19.9278 43.2615 20.9 43.6504 22.0667 43.6504H37.9333C39.1 43.6504 40.0722 43.2615 40.85 42.4837C41.6278 41.7059 42.0167 40.7337 42.0167 39.5671V35.9504C42.0167 35.5615 41.8806 35.2309 41.6083 34.9587C41.3361 34.6865 41.025 34.5504 40.675 34.5504C40.325 34.5504 40.0139 34.6865 39.7417 34.9587C39.4694 35.2309 39.3333 35.5615 39.3333 35.9504V39.5671C39.3333 39.9559 39.1972 40.2865 38.925 40.5587C38.6528 40.8309 38.3222 40.9671 37.9333 40.9671H22.0667C21.6778 40.9671 21.3472 40.8309 21.075 40.5587C20.8028 40.2865 20.6667 39.9559 20.6667 39.5671V32.1004L27.3167 34.9004C28.1722 35.2893 29.0667 35.4837 30 35.4837C30.9333 35.4837 31.8278 35.2893 32.6833 34.9004L44.9333 29.6504C45.7111 29.3393 46.3333 28.8532 46.8 28.1921C47.2667 27.5309 47.5 26.7726 47.5 25.9171C47.5 25.0615 47.2667 24.3032 46.8 23.6421C46.3333 22.9809 45.7111 22.4559 44.9333 22.0671ZM43.8833 27.2004C39.7611 28.9115 35.6389 30.6615 31.5167 32.4504C31.05 32.6059 30.5444 32.6837 30 32.6837C29.4556 32.6837 28.95 32.6059 28.4833 32.4504L16.1167 27.2004C15.8056 27.0448 15.5722 26.8504 15.4167 26.6171C15.2611 26.3837 15.1833 26.1309 15.1833 25.8587C15.1833 25.5865 15.2611 25.3337 15.4167 25.1004C15.5722 24.8671 15.8056 24.7115 16.1167 24.6337L28.4833 19.3837C28.95 19.1504 29.4556 19.0337 30 19.0337C30.5444 19.0337 31.05 19.1504 31.5167 19.3837L43.8833 24.6337C44.1944 24.7115 44.4278 24.8671 44.5833 25.1004C44.7389 25.3337 44.8167 25.5865 44.8167 25.8587C44.8167 26.1309 44.7389 26.3837 44.5833 26.6171C44.4278 26.8504 44.1944 27.0448 43.8833 27.2004ZM46.1 32.2171C45.7111 32.2171 45.4 32.3532 45.1667 32.6254C44.9333 32.8976 44.8167 33.2282 44.8167 33.6171V39.5671C44.8167 39.9559 44.9333 40.2865 45.1667 40.5587C45.4 40.8309 45.7111 40.9671 46.1 40.9671C46.4889 40.9671 46.8194 40.8309 47.0917 40.5587C47.3639 40.2865 47.5 39.9559 47.5 39.5671V33.6171C47.5 33.2282 47.3639 32.8976 47.0917 32.6254C46.8194 32.3532 46.4889 32.2171 46.1 32.2171Z" fill="white"/>
</g>
</g>
<defs>
<filter id="filter0_d_8512_2097" x="0" y="0" width="65" height="65" filterUnits="userSpaceOnUse" color-interpolation-filters="sRGB">
<feFlood flood-opacity="0" result="BackgroundImageFix"/>
<feColorMatrix in="SourceAlpha" type="matrix" values="0 0 0 0 0 0 0 0 0 0 0 0 0 0 0 0 0 0 127 0" result="hardAlpha"/>
<feOffset dx="5" dy="5"/>
<feComposite in2="hardAlpha" operator="out"/>
<feColorMatrix type="matrix" values="0 0 0 0 0 0 0 0 0 0 0 0 0 0 0 0 0 0 0.25 0"/>
<feBlend mode="normal" in2="BackgroundImageFix" result="effect1_dropShadow_8512_2097"/>
<feBlend mode="normal" in="SourceGraphic" in2="effect1_dropShadow_8512_2097" result="shape"/>
</filter>
<clipPath id="clip0_8512_2097">
<rect width="35" height="35" fill="white" transform="matrix(1 0 0 -1 12.5 47.5)"/>
</clipPath>
</defs>
</svg>
