<svg width="20" height="20" viewBox="0 0 20 20" fill="none" xmlns="http://www.w3.org/2000/svg">
<g clip-path="url(#clip0_8513_469)">
<path d="M18.5333 5.46647C16.1778 4.48869 13.8444 3.48869 11.5333 2.46647C11.0444 2.28869 10.5333 2.1998 10 2.1998C9.46667 2.1998 8.95556 2.28869 8.46667 2.46647L1.46667 5.46647C1.02222 5.68869 0.666667 5.98869 0.4 6.36647C0.133333 6.74425 0 7.17758 0 7.66647C0 8.15536 0.133333 8.58869 0.4 8.96647C0.666667 9.34425 1.02222 9.62203 1.46667 9.7998L3.13333 10.5331V15.4665C3.13333 16.1331 3.35556 16.6887 3.8 17.1331C4.24444 17.5776 4.8 17.7998 5.46667 17.7998H14.5333C15.2 17.7998 15.7556 17.5776 16.2 17.1331C16.6444 16.6887 16.8667 16.1331 16.8667 15.4665V13.3998C16.8667 13.1776 16.7889 12.9887 16.6333 12.8331C16.4778 12.6776 16.3 12.5998 16.1 12.5998C15.9 12.5998 15.7222 12.6776 15.5667 12.8331C15.4111 12.9887 15.3333 13.1776 15.3333 13.3998V15.4665C15.3333 15.6887 15.2556 15.8776 15.1 16.0331C14.9444 16.1887 14.7556 16.2665 14.5333 16.2665H5.46667C5.24444 16.2665 5.05556 16.1887 4.9 16.0331C4.74444 15.8776 4.66667 15.6887 4.66667 15.4665V11.1998L8.46667 12.7998C8.95556 13.022 9.46667 13.1331 10 13.1331C10.5333 13.1331 11.0444 13.022 11.5333 12.7998L18.5333 9.7998C18.9778 9.62203 19.3333 9.34425 19.6 8.96647C19.8667 8.58869 20 8.15536 20 7.66647C20 7.17758 19.8667 6.74425 19.6 6.36647C19.3333 5.98869 18.9778 5.68869 18.5333 5.46647ZM17.9333 8.3998C15.5778 9.37758 13.2222 10.3776 10.8667 11.3998C10.6 11.4887 10.3111 11.5331 10 11.5331C9.68889 11.5331 9.4 11.4887 9.13333 11.3998L2.06667 8.3998C1.88889 8.31091 1.75556 8.1998 1.66667 8.06647C1.57778 7.93314 1.53333 7.78869 1.53333 7.63314C1.53333 7.47758 1.57778 7.33314 1.66667 7.1998C1.75556 7.06647 1.88889 6.97758 2.06667 6.93314L9.13333 3.93314C9.4 3.7998 9.68889 3.73314 10 3.73314C10.3111 3.73314 10.6 3.7998 10.8667 3.93314L17.9333 6.93314C18.1111 6.97758 18.2444 7.06647 18.3333 7.1998C18.4222 7.33314 18.4667 7.47758 18.4667 7.63314C18.4667 7.78869 18.4222 7.93314 18.3333 8.06647C18.2444 8.1998 18.1111 8.31091 17.9333 8.3998ZM19.2 11.2665C18.9778 11.2665 18.8 11.3442 18.6667 11.4998C18.5333 11.6554 18.4667 11.8442 18.4667 12.0665V15.4665C18.4667 15.6887 18.5333 15.8776 18.6667 16.0331C18.8 16.1887 18.9778 16.2665 19.2 16.2665C19.4222 16.2665 19.6111 16.1887 19.7667 16.0331C19.9222 15.8776 20 15.6887 20 15.4665V12.0665C20 11.8442 19.9222 11.6554 19.7667 11.4998C19.6111 11.3442 19.4222 11.2665 19.2 11.2665Z" fill="#7F7E97"/>
</g>
<defs>
<clipPath id="clip0_8513_469">
<rect width="20" height="20" fill="white" transform="matrix(1 0 0 -1 0 20)"/>
</clipPath>
</defs>
</svg>
