<svg width="15" height="15" viewBox="0 0 15 15" fill="none" xmlns="http://www.w3.org/2000/svg">
<path d="M7.03281 3.40625C9.00156 3.40625 10.6266 5.03125 10.6266 7C10.6266 9 9.00156 10.5938 7.03281 10.5938C5.03281 10.5938 3.43906 9 3.43906 7C3.43906 5.03125 5.03281 3.40625 7.03281 3.40625ZM7.03281 9.34375C8.31406 9.34375 9.34531 8.3125 9.34531 7C9.34531 5.71875 8.31406 4.6875 7.03281 4.6875C5.72031 4.6875 4.68906 5.71875 4.68906 7C4.68906 8.3125 5.75156 9.34375 7.03281 9.34375ZM11.5953 3.28125C11.5953 3.75 11.2203 4.125 10.7516 4.125C10.2828 4.125 9.90781 3.75 9.90781 3.28125C9.90781 2.8125 10.2828 2.4375 10.7516 2.4375C11.2203 2.4375 11.5953 2.8125 11.5953 3.28125ZM13.9703 4.125C14.0328 5.28125 14.0328 8.75 13.9703 9.90625C13.9078 11.0312 13.6578 12 12.8453 12.8438C12.0328 13.6562 11.0328 13.9062 9.90781 13.9688C8.75156 14.0312 5.28281 14.0312 4.12656 13.9688C3.00156 13.9062 2.03281 13.6562 1.18906 12.8438C0.376563 12 0.126563 11.0312 0.0640626 9.90625C0.0015626 8.75 0.0015626 5.28125 0.0640626 4.125C0.126563 3 0.376563 2 1.18906 1.1875C2.03281 0.375 3.00156 0.125 4.12656 0.0625C5.28281 0 8.75156 0 9.90781 0.0625C11.0328 0.125 12.0328 0.375 12.8453 1.1875C13.6578 2 13.9078 3 13.9703 4.125ZM12.4703 11.125C12.8453 10.2188 12.7516 8.03125 12.7516 7C12.7516 6 12.8453 3.8125 12.4703 2.875C12.2203 2.28125 11.7516 1.78125 11.1578 1.5625C10.2203 1.1875 8.03281 1.28125 7.03281 1.28125C6.00156 1.28125 3.81406 1.1875 2.90781 1.5625C2.28281 1.8125 1.81406 2.28125 1.56406 2.875C1.18906 3.8125 1.28281 6 1.28281 7C1.28281 8.03125 1.18906 10.2188 1.56406 11.125C1.81406 11.75 2.28281 12.2188 2.90781 12.4688C3.81406 12.8438 6.00156 12.75 7.03281 12.75C8.03281 12.75 10.2203 12.8438 11.1578 12.4688C11.7516 12.2188 12.2516 11.75 12.4703 11.125Z" fill="white"/>
</svg>
