<svg width="26" height="26" viewBox="0 0 26 26" fill="none" xmlns="http://www.w3.org/2000/svg">
<g filter="url(#filter0_d_8513_546)">
<path d="M12.7891 4.25781C15.25 4.25781 17.2812 6.28906 17.2812 8.75C17.2812 11.25 15.25 13.2422 12.7891 13.2422C10.2891 13.2422 8.29688 11.25 8.29688 8.75C8.29688 6.28906 10.2891 4.25781 12.7891 4.25781ZM12.7891 11.6797C14.3906 11.6797 15.6797 10.3906 15.6797 8.75C15.6797 7.14844 14.3906 5.85938 12.7891 5.85938C11.1484 5.85938 9.85938 7.14844 9.85938 8.75C9.85938 10.3906 11.1875 11.6797 12.7891 11.6797ZM18.4922 4.10156C18.4922 4.6875 18.0234 5.15625 17.4375 5.15625C16.8516 5.15625 16.3828 4.6875 16.3828 4.10156C16.3828 3.51562 16.8516 3.04688 17.4375 3.04688C18.0234 3.04688 18.4922 3.51562 18.4922 4.10156ZM21.4609 5.15625C21.5391 6.60156 21.5391 10.9375 21.4609 12.3828C21.3828 13.7891 21.0703 15 20.0547 16.0547C19.0391 17.0703 17.7891 17.3828 16.3828 17.4609C14.9375 17.5391 10.6016 17.5391 9.15625 17.4609C7.75 17.3828 6.53906 17.0703 5.48438 16.0547C4.46875 15 4.15625 13.7891 4.07812 12.3828C4 10.9375 4 6.60156 4.07812 5.15625C4.15625 3.75 4.46875 2.5 5.48438 1.48438C6.53906 0.46875 7.75 0.15625 9.15625 0.078125C10.6016 0 14.9375 0 16.3828 0.078125C17.7891 0.15625 19.0391 0.46875 20.0547 1.48438C21.0703 2.5 21.3828 3.75 21.4609 5.15625ZM19.5859 13.9062C20.0547 12.7734 19.9375 10.0391 19.9375 8.75C19.9375 7.5 20.0547 4.76562 19.5859 3.59375C19.2734 2.85156 18.6875 2.22656 17.9453 1.95312C16.7734 1.48438 14.0391 1.60156 12.7891 1.60156C11.5 1.60156 8.76562 1.48438 7.63281 1.95312C6.85156 2.26562 6.26562 2.85156 5.95312 3.59375C5.48438 4.76562 5.60156 7.5 5.60156 8.75C5.60156 10.0391 5.48438 12.7734 5.95312 13.9062C6.26562 14.6875 6.85156 15.2734 7.63281 15.5859C8.76562 16.0547 11.5 15.9375 12.7891 15.9375C14.0391 15.9375 16.7734 16.0547 17.9453 15.5859C18.6875 15.2734 19.3125 14.6875 19.5859 13.9062Z" fill="#7F7E97"/>
</g>
<defs>
<filter id="filter0_d_8513_546" x="0" y="0" width="25.5391" height="25.5391" filterUnits="userSpaceOnUse" color-interpolation-filters="sRGB">
<feFlood flood-opacity="0" result="BackgroundImageFix"/>
<feColorMatrix in="SourceAlpha" type="matrix" values="0 0 0 0 0 0 0 0 0 0 0 0 0 0 0 0 0 0 127 0" result="hardAlpha"/>
<feOffset dy="4"/>
<feGaussianBlur stdDeviation="2"/>
<feComposite in2="hardAlpha" operator="out"/>
<feColorMatrix type="matrix" values="0 0 0 0 0 0 0 0 0 0 0 0 0 0 0 0 0 0 0.25 0"/>
<feBlend mode="normal" in2="BackgroundImageFix" result="effect1_dropShadow_8513_546"/>
<feBlend mode="normal" in="SourceGraphic" in2="effect1_dropShadow_8513_546" result="shape"/>
</filter>
</defs>
</svg>
