<svg width="20" height="20" viewBox="0 0 20 20" fill="none" xmlns="http://www.w3.org/2000/svg">
<g clip-path="url(#clip0_8513_485)">
<path d="M3.13333 15.3333H13.7333C14.5778 15.3333 15.3111 15.0222 15.9333 14.4C16.5556 13.7778 16.8667 13.0444 16.8667 12.2V3.13333C16.8667 2.24444 16.5556 1.5 15.9333 0.9C15.3111 0.299999 14.5778 -1.90735e-06 13.7333 -1.90735e-06H3.13333C2.28889 -1.90735e-06 1.55556 0.299999 0.933333 0.9C0.311111 1.5 0 2.24444 0 3.13333V16.8667C0 17.7556 0.311111 18.5 0.933333 19.1C1.55556 19.7 2.28889 20 3.13333 20H13.7333C14.5778 20 15.3111 19.7 15.9333 19.1C16.5556 18.5 16.8667 17.7556 16.8667 16.8667C16.8667 16.6444 16.7889 16.4556 16.6333 16.3C16.4778 16.1444 16.2889 16.0667 16.0667 16.0667C15.8444 16.0667 15.6667 16.1444 15.5333 16.3C15.4 16.4556 15.3333 16.6444 15.3333 16.8667C15.3333 17.3111 15.1778 17.6889 14.8667 18C14.5556 18.3111 14.1778 18.4667 13.7333 18.4667H3.13333C2.73333 18.4667 2.37778 18.3111 2.06667 18C1.75556 17.6889 1.6 17.3111 1.6 16.8667C1.6 16.4222 1.75556 16.0556 2.06667 15.7667C2.37778 15.4778 2.73333 15.3333 3.13333 15.3333ZM1.6 3.13333C1.6 2.68889 1.75556 2.31111 2.06667 2C2.37778 1.68889 2.73333 1.53333 3.13333 1.53333H13.7333C14.1778 1.53333 14.5556 1.68889 14.8667 2C15.1778 2.31111 15.3333 2.68889 15.3333 3.13333V12.2C15.3333 12.6444 15.1778 13.0111 14.8667 13.3C14.5556 13.5889 14.1778 13.7333 13.7333 13.7333H3.13333C2.6 13.7333 2.08889 13.8889 1.6 14.2V3.13333ZM4.73333 5.26667C4.73333 5.04444 4.81111 4.85555 4.96667 4.7C5.12222 4.54444 5.31111 4.46667 5.53333 4.46667H11.4C11.6222 4.46667 11.8111 4.54444 11.9667 4.7C12.1222 4.85555 12.2 5.04444 12.2 5.26667C12.2 5.48889 12.1222 5.67778 11.9667 5.83333C11.8111 5.98889 11.6222 6.06667 11.4 6.06667H5.53333C5.31111 6.06667 5.12222 5.98889 4.96667 5.83333C4.81111 5.67778 4.73333 5.48889 4.73333 5.26667Z" fill="#7F7E97"/>
</g>
<defs>
<clipPath id="clip0_8513_485">
<rect width="20" height="20" fill="white" transform="matrix(1 0 0 -1 0 20)"/>
</clipPath>
</defs>
</svg>
