<svg width="18" height="11" viewBox="0 0 18 11" fill="none" xmlns="http://www.w3.org/2000/svg">
<path d="M17.1719 2.48828C17.8008 2.67969 17.8008 3.52734 17.1719 3.71875L9.54297 6.07031C8.99609 6.23438 8.50391 6.15234 8.25781 6.07031L2.92578 4.42969C2.57031 4.64844 2.37891 5.03125 2.35156 5.44141C2.59766 5.57812 2.78906 5.85156 2.78906 6.15234C2.78906 6.45312 2.625 6.69922 2.40625 6.86328L3.08984 10.0078C3.14453 10.2812 2.95312 10.5273 2.67969 10.5273H1.12109C0.847656 10.5273 0.65625 10.2812 0.710938 10.0078L1.39453 6.86328C1.17578 6.69922 1.03906 6.45312 1.03906 6.15234C1.03906 5.85156 1.20312 5.57812 1.47656 5.41406C1.50391 4.94922 1.66797 4.48438 1.96875 4.12891L0.628906 3.71875C0 3.52734 0 2.67969 0.628906 2.48828L8.25781 0.136719C8.66797 0 9.13281 0 9.54297 0.136719L17.1719 2.48828ZM9.78906 6.91797L13.7539 5.6875L14.1641 8.77734C14.1641 9.76172 11.8125 10.5273 8.91406 10.5273C5.98828 10.5273 3.66406 9.76172 3.66406 8.77734L4.04688 5.6875L8.01172 6.91797C8.33984 7.02734 9.02344 7.13672 9.78906 6.91797Z" fill="black"/>
</svg>
