<svg width="18" height="18" viewBox="0 0 18 18" fill="none" xmlns="http://www.w3.org/2000/svg">
<g clip-path="url(#clip0_8513_686)">
<path d="M9.00125 11.9703C10.6415 11.9703 11.9713 10.6406 11.9713 9.00027C11.9713 7.35999 10.6415 6.03027 9.00125 6.03027C7.36096 6.03027 6.03125 7.35999 6.03125 9.00027C6.03125 10.6406 7.36096 11.9703 9.00125 11.9703Z" fill="#ED1376"/>
<path d="M12.78 0H5.22C2.34 0 0 2.34 0 5.22V12.69C0 15.66 2.34 18 5.22 18H12.69C15.57 18 17.91 15.66 17.91 12.78V5.22C18 2.34 15.66 0 12.78 0ZM9 13.5C6.48 13.5 4.5 11.52 4.5 9C4.5 6.48 6.48 4.5 9 4.5C11.52 4.5 13.5 6.48 13.5 9C13.5 11.52 11.52 13.5 9 13.5ZM14.22 4.5C13.86 4.5 13.5 4.14 13.5 3.78C13.5 3.42 13.86 3.06 14.22 3.06C14.58 3.06 14.94 3.42 14.94 3.78C14.94 4.14 14.67 4.5 14.22 4.5Z" fill="#ED1376"/>
</g>
<defs>
<clipPath id="clip0_8513_686">
<rect width="18" height="18" fill="white"/>
</clipPath>
</defs>
</svg>
