<svg width="18" height="18" viewBox="0 0 18 18" fill="none" xmlns="http://www.w3.org/2000/svg">
<g clip-path="url(#clip0_8513_689)">
<path d="M13.5 0H4.5C1.98 0 0 1.98 0 4.5V13.5C0 16.02 1.98 18 4.5 18H13.5C16.02 18 18 16.02 18 13.5V4.5C18 1.98 16.02 0 13.5 0ZM13.05 9.81L6.93 13.23C6.84 13.32 6.66 13.32 6.48 13.32C6.03 13.32 5.58 12.96 5.58 12.42V5.58C5.58 5.13 5.94 4.68 6.48 4.68C6.66 4.68 6.75 4.68 6.93 4.77L13.05 8.19C13.5 8.46 13.68 8.91 13.41 9.36C13.32 9.54 13.14 9.72 13.05 9.81Z" fill="#FF0000"/>
</g>
<defs>
<clipPath id="clip0_8513_689">
<rect width="18" height="18" fill="white"/>
</clipPath>
</defs>
</svg>
