<svg width="16" height="16" viewBox="0 0 16 16" fill="none" xmlns="http://www.w3.org/2000/svg">
<path d="M0.693333 13.333C0.551111 13.333 0.417778 13.2975 0.293333 13.2263C0.168889 13.1552 0.0888889 13.0575 0.0533333 12.933C0.0177778 12.8086 0.00888889 12.6752 0.0266667 12.533C0.0444444 12.3908 0.106667 12.2841 0.213333 12.213L4.37333 7.99967L0.213333 3.78634C0.0711111 3.67967 0 3.52856 0 3.33301C0 3.13745 0.0622222 2.97745 0.186667 2.85301C0.311111 2.72856 0.471111 2.66634 0.666667 2.66634C0.862222 2.66634 1.01333 2.73745 1.12 2.87967L5.81333 7.51967C5.92 7.6619 5.97333 7.8219 5.97333 7.99967C5.97333 8.17745 5.92 8.33745 5.81333 8.47967L1.12 13.1197C1.01333 13.2619 0.853333 13.333 0.64 13.333H0.693333Z" fill="#161439"/>
</svg>
