<svg width="18" height="18" viewBox="0 0 18 18" fill="none" xmlns="http://www.w3.org/2000/svg">
<g clip-path="url(#clip0_8512_2422)">
<path d="M6.18 0.539961C5.06 0.539961 4.02 0.819962 3.06 1.37996C2.1 1.93996 1.35 2.68996 0.81 3.62996C0.27 4.56996 0 5.59996 0 6.71996C0 8.11996 0.94 10.28 2.82 13.2C3.82 14.68 4.84 16.06 5.88 17.34C5.96 17.42 6.06 17.46 6.18 17.46C6.3 17.46 6.4 17.42 6.48 17.34C7.52 16.06 8.54 14.68 9.54 13.2C11.42 10.28 12.36 8.11996 12.36 6.71996C12.36 5.59996 12.09 4.56996 11.55 3.62996C11.01 2.68996 10.26 1.93996 9.3 1.37996C8.34 0.819962 7.3 0.539961 6.18 0.539961ZM6.18 16.5C4.98 14.98 3.92 13.52 3 12.12C1.48 9.67996 0.72 7.87996 0.72 6.71996C0.72 5.75996 0.96 4.85996 1.44 4.01996C1.92 3.17996 2.58 2.50996 3.42 2.00996C4.26 1.50996 5.18 1.25996 6.18 1.25996C7.18 1.25996 8.1 1.50996 8.94 2.00996C9.78 2.50996 10.44 3.17996 10.92 4.01996C11.4 4.85996 11.64 5.75996 11.64 6.71996C11.64 7.87996 10.88 9.67996 9.36 12.12C8.44 13.52 7.38 14.98 6.18 16.5ZM6.18 4.01996C5.5 4.01996 4.91 4.26996 4.41 4.76996C3.91 5.26996 3.66 5.86996 3.66 6.56996C3.66 7.26996 3.91 7.85996 4.41 8.33996C4.91 8.81996 5.5 9.05996 6.18 9.05996C6.86 9.05996 7.45 8.81996 7.95 8.33996C8.45 7.85996 8.7 7.26996 8.7 6.56996C8.7 5.86996 8.45 5.26996 7.95 4.76996C7.45 4.26996 6.86 4.01996 6.18 4.01996ZM6.18 8.33996C5.66 8.33996 5.23 8.16996 4.89 7.82996C4.55 7.48996 4.38 7.06996 4.38 6.56996C4.38 6.06996 4.55 5.63996 4.89 5.27996C5.23 4.91996 5.66 4.73996 6.18 4.73996C6.7 4.73996 7.13 4.91996 7.47 5.27996C7.81 5.63996 7.98 6.06996 7.98 6.56996C7.98 7.06996 7.81 7.48996 7.47 7.82996C7.13 8.16996 6.7 8.33996 6.18 8.33996Z" fill="#5751E1"/>
</g>
<defs>
<clipPath id="clip0_8512_2422">
<rect width="18" height="18" fill="white" transform="matrix(1 0 0 -1 0 18)"/>
</clipPath>
</defs>
</svg>
