<svg width="20" height="20" viewBox="0 0 20 20" fill="none" xmlns="http://www.w3.org/2000/svg">
<g clip-path="url(#clip0_8513_772)">
<path d="M10 0C4.53333 0 0 4.53333 0 10C0 15.4667 4.53333 20 10 20C15.4667 20 20 15.4667 20 10C20 4.53333 15.4667 0 10 0ZM10 2.8C11.8667 2.8 13.3333 4.26667 13.3333 6C13.3333 7.73333 11.8667 9.33333 10 9.33333C8.13333 9.33333 6.66667 7.86667 6.66667 6C6.66667 4.13333 8.13333 2.8 10 2.8ZM10 18C7.2 18 4.8 16.6667 3.33333 14.5333C4.53333 12.8 8 12 10 12C12 12 15.4667 12.8 16.6667 14.5333C15.2 16.6667 12.8 18 10 18Z" fill="#102136"/>
</g>
<defs>
<clipPath id="clip0_8513_772">
<rect width="20" height="20" fill="white"/>
</clipPath>
</defs>
</svg>
