<svg width="13" height="13" viewBox="0 0 13 13" fill="none" xmlns="http://www.w3.org/2000/svg">
<path d="M10.9375 0C11.6484 0 12.25 0.601562 12.25 1.3125V10.9375C12.25 11.6758 11.6484 12.25 10.9375 12.25H1.3125C0.574219 12.25 0 11.6758 0 10.9375V1.3125C0 0.601562 0.574219 0 1.3125 0H10.9375ZM10.4727 8.42188C10.4727 8.39453 10.4727 8.36719 10.5 8.3125C10.4727 8.14844 10.3906 8.01172 10.2266 7.95703L8.3125 7.13672C8.28516 7.10938 8.23047 7.10938 8.17578 7.08203C8.03906 7.10938 7.92969 7.16406 7.84766 7.24609L7 8.28516C5.66016 7.65625 4.59375 6.58984 3.96484 5.25L5.00391 4.40234C5.08594 4.32031 5.14062 4.21094 5.16797 4.07422C5.14062 4.01953 5.14062 3.96484 5.11328 3.9375L4.29297 2.02344C4.23828 1.85938 4.10156 1.77734 3.9375 1.75C3.88281 1.77734 3.85547 1.77734 3.82812 1.77734L2.05078 2.1875C1.88672 2.24219 1.75 2.37891 1.75 2.57031C1.75 6.97266 5.30469 10.5 9.67969 10.5C9.87109 10.5 10.0352 10.3906 10.0625 10.1992L10.4727 8.42188Z" fill="black"/>
</svg>
