<svg width="97" height="16" viewBox="0 0 97 16" fill="none" xmlns="http://www.w3.org/2000/svg">
<path d="M7.58789 0.703125C7.93945 0 8.93555 0.0292969 9.25781 0.703125L11.1914 4.59961L15.4688 5.21484C16.2305 5.33203 16.5234 6.26953 15.9668 6.82617L12.8906 9.84375L13.623 14.0918C13.7402 14.8535 12.9199 15.4395 12.2461 15.0879L8.4375 13.0664L4.59961 15.0879C3.92578 15.4395 3.10547 14.8535 3.22266 14.0918L3.95508 9.84375L0.878906 6.82617C0.322266 6.26953 0.615234 5.33203 1.37695 5.21484L5.68359 4.59961L7.58789 0.703125Z" fill="#F8BC24"/>
<path d="M27.4707 0.703125C27.8223 0 28.8184 0.0292969 29.1406 0.703125L31.0742 4.59961L35.3516 5.21484C36.1133 5.33203 36.4062 6.26953 35.8496 6.82617L32.7734 9.84375L33.5059 14.0918C33.623 14.8535 32.8027 15.4395 32.1289 15.0879L28.3203 13.0664L24.4824 15.0879C23.8086 15.4395 22.9883 14.8535 23.1055 14.0918L23.8379 9.84375L20.7617 6.82617C20.2051 6.26953 20.498 5.33203 21.2598 5.21484L25.5664 4.59961L27.4707 0.703125Z" fill="#F8BC24"/>
<path d="M47.3379 0.703125C47.6895 0 48.6855 0.0292969 49.0078 0.703125L50.9414 4.59961L55.2188 5.21484C55.9805 5.33203 56.2734 6.26953 55.7168 6.82617L52.6406 9.84375L53.373 14.0918C53.4902 14.8535 52.6699 15.4395 51.9961 15.0879L48.1875 13.0664L44.3496 15.0879C43.6758 15.4395 42.8555 14.8535 42.9727 14.0918L43.7051 9.84375L40.6289 6.82617C40.0723 6.26953 40.3652 5.33203 41.127 5.21484L45.4336 4.59961L47.3379 0.703125Z" fill="#F8BC24"/>
<path d="M67.2207 0.703125C67.5723 0 68.5684 0.0292969 68.8906 0.703125L70.8242 4.59961L75.1016 5.21484C75.8633 5.33203 76.1562 6.26953 75.5996 6.82617L72.5234 9.84375L73.2559 14.0918C73.373 14.8535 72.5527 15.4395 71.8789 15.0879L68.0703 13.0664L64.2324 15.0879C63.5586 15.4395 62.7383 14.8535 62.8555 14.0918L63.5879 9.84375L60.5117 6.82617C59.9551 6.26953 60.248 5.33203 61.0098 5.21484L65.3164 4.59961L67.2207 0.703125Z" fill="#F8BC24"/>
<path d="M87.0879 0.703125C87.4395 0 88.4355 0.0292969 88.7578 0.703125L90.6914 4.59961L94.9688 5.21484C95.7305 5.33203 96.0234 6.26953 95.4668 6.82617L92.3906 9.84375L93.123 14.0918C93.2402 14.8535 92.4199 15.4395 91.7461 15.0879L87.9375 13.0664L84.0996 15.0879C83.4258 15.4395 82.6055 14.8535 82.7227 14.0918L83.4551 9.84375L80.3789 6.82617C79.8223 6.26953 80.1152 5.33203 80.877 5.21484L85.1836 4.59961L87.0879 0.703125Z" fill="#F8BC24"/>
</svg>
