<svg width="22" height="28" viewBox="0 0 22 28" fill="none" xmlns="http://www.w3.org/2000/svg">
<g clip-path="url(#clip0_8512_2086)">
<path d="M0.1875 26.3132V1.69421C0.187358 1.40603 0.242373 1.12259 0.347343 0.870694C0.452312 0.6188 0.603757 0.406797 0.78734 0.254768C0.970924 0.10274 1.18057 0.0157243 1.39643 0.00193866C1.61228 -0.011847 1.82721 0.0480663 2.02085 0.176003L20.4827 12.3292C20.6944 12.4694 20.8725 12.6856 20.997 12.9535C21.1216 13.2214 21.1875 13.5304 21.1875 13.8456C21.1875 14.1608 21.1216 14.4697 20.997 14.7376C20.8725 15.0055 20.6944 15.2217 20.4827 15.3619L2.02085 27.824C1.82763 27.9517 1.61322 28.0116 1.39783 27.9981C1.18243 27.9847 0.97314 27.8983 0.789708 27.7472C0.606275 27.596 0.454731 27.385 0.349369 27.1342C0.244008 26.8833 0.188306 26.6008 0.1875 26.3132Z" fill="#E11B24"/>
</g>
<defs>
<clipPath id="clip0_8512_2086">
<rect width="22" height="28" fill="white"/>
</clipPath>
</defs>
</svg>
