<svg width="15" height="15" viewBox="0 0 15 15" fill="none" xmlns="http://www.w3.org/2000/svg">
<g clip-path="url(#clip0_8513_765)">
<path d="M14.8 13.7L12 11C12.9 9.8 13.5 8.4 13.5 6.8C13.5 3.1 10.5 0 6.7 0C2.9 0 0 3 0 6.8C0 10.6 3 13.6 6.8 13.6C8.4 13.6 9.9 13 11 12.1L13.8 14.9C13.9 15 14.1 15.1 14.3 15.1C14.5 15.1 14.7 15 14.8 14.9C15.1 14.5 15.1 14 14.8 13.7ZM1.5 6.8C1.5 3.9 3.9 1.6 6.7 1.6C9.5 1.6 12 3.9 12 6.8C12 9.7 9.6 12 6.8 12C4 12 1.5 9.6 1.5 6.8Z" fill="#102136"/>
</g>
<defs>
<clipPath id="clip0_8513_765">
<rect width="15" height="15" fill="white"/>
</clipPath>
</defs>
</svg>
