<svg width="49" height="37" viewBox="0 0 49 37" fill="none" xmlns="http://www.w3.org/2000/svg">
<path d="M16.6517 31.7641C16.4013 31.7776 16.1533 31.7064 15.945 31.5614C15.7367 31.4164 15.5796 31.2054 15.4974 30.9603L14.0668 26.6959C13.4507 24.8403 12.3847 23.1772 10.9707 21.8658C9.55681 20.5543 7.84219 19.6381 5.99076 19.205L1.73446 18.1946C1.49004 18.1364 1.27033 17.9976 1.10854 17.7992C0.946756 17.6008 0.851696 17.3537 0.837731 17.0951C0.823767 16.8365 0.891658 16.5805 1.03114 16.3659C1.17062 16.1513 1.37411 15.9896 1.61085 15.9054L5.73358 14.4426C7.52759 13.8125 9.13359 12.7171 10.398 11.261C11.6625 9.80484 12.5432 8.03667 12.956 6.12546L13.919 1.73179C13.9745 1.47947 14.108 1.25298 14.2995 1.08653C14.4909 0.920093 14.7298 0.822757 14.9801 0.809243C15.2303 0.795729 15.4783 0.866771 15.6866 1.01163C15.8948 1.15648 16.052 1.36728 16.1343 1.61215L17.5649 5.87657C18.1811 7.73221 19.2471 9.39525 20.661 10.7067C22.075 12.0182 23.7896 12.9343 25.641 13.3675L29.8973 14.3779C30.1417 14.4361 30.3614 14.5749 30.5232 14.7733C30.685 14.9716 30.7801 15.2188 30.794 15.4774C30.808 15.736 30.7401 15.9919 30.6006 16.2066C30.4612 16.4212 30.2577 16.5828 30.0209 16.667L25.8982 18.1299C24.1042 18.76 22.4982 19.8554 21.2337 21.3115C19.9692 22.7677 19.0885 24.5358 18.6758 26.447L17.7127 30.8407C17.6574 31.0932 17.5239 31.3199 17.3325 31.4865C17.141 31.6531 16.9021 31.7505 16.6517 31.7641ZM6.18326 16.8064L6.49549 16.8819C8.72987 17.4048 10.7991 18.5105 12.5055 20.0933C14.2119 21.6761 15.4985 23.6831 16.2423 25.9225L16.3485 26.2352L16.4205 25.9129C16.9187 23.6064 17.9817 21.4725 19.5077 19.7151C21.0338 17.9578 22.9719 16.6357 25.137 15.8752L25.4393 15.7666L25.1271 15.6911C22.8927 15.1682 20.8234 14.0625 19.117 12.4797C17.4106 10.8969 16.124 8.88994 15.3803 6.65049L15.2784 6.33438L15.2065 6.65669C14.7082 8.96321 13.6453 11.0971 12.1192 12.8544C10.5932 14.6118 8.65505 15.9338 6.48998 16.6943L6.18326 16.8064Z" fill="#27272F" fill-opacity="0.2"/>
<path d="M40.4581 36.0376C40.316 36.0453 40.1751 36.0049 40.0568 35.9225C39.9385 35.8402 39.8493 35.7203 39.8026 35.5812L38.9902 33.1595C38.6403 32.1057 38.035 31.1613 37.232 30.4165C36.4291 29.6717 35.4553 29.1515 34.4039 28.9055L31.9869 28.3317C31.8481 28.2987 31.7233 28.2198 31.6314 28.1072C31.5395 27.9945 31.4856 27.8542 31.4776 27.7073C31.4697 27.5605 31.5083 27.4151 31.5875 27.2932C31.6667 27.1714 31.7822 27.0796 31.9167 27.0318L34.2579 26.201C35.2767 25.8432 36.1887 25.2211 36.9068 24.3942C37.6249 23.5673 38.125 22.5632 38.3594 21.4779L38.9063 18.9828C38.9378 18.8395 39.0136 18.7109 39.1224 18.6163C39.2311 18.5218 39.3667 18.4665 39.5089 18.4589C39.651 18.4512 39.7918 18.4915 39.9101 18.5738C40.0283 18.6561 40.1176 18.7758 40.1643 18.9148L40.9767 21.3365C41.3267 22.3903 41.932 23.3347 42.735 24.0795C43.5379 24.8243 44.5116 25.3445 45.563 25.5905L47.9801 26.1643C48.1189 26.1974 48.2437 26.2762 48.3356 26.3888C48.4274 26.5015 48.4814 26.6418 48.4893 26.7887C48.4973 26.9355 48.4587 27.0809 48.3795 27.2028C48.3003 27.3246 48.1847 27.4164 48.0503 27.4643L45.7091 28.295C44.6903 28.6528 43.7783 29.2749 43.0602 30.1018C42.3421 30.9287 41.842 31.9328 41.6076 33.0182L41.0607 35.5132C41.0293 35.6566 40.9535 35.7853 40.8447 35.88C40.736 35.9746 40.6003 36.0299 40.4581 36.0376ZM34.5133 27.5434L34.6906 27.5863C35.9594 27.8832 37.1345 28.5111 38.1036 29.4099C39.0726 30.3088 39.8033 31.4485 40.2256 32.7203L40.286 32.8978L40.3268 32.7148C40.6098 31.405 41.2134 30.1932 42.08 29.1952C42.9467 28.1972 44.0473 27.4465 45.2768 27.0146L45.4485 26.9529L45.2712 26.91C44.0023 26.6131 42.8272 25.9852 41.8581 25.0863C40.8891 24.1875 40.1585 23.0478 39.7361 21.776L39.6783 21.5965L39.6374 21.7795C39.3545 23.0894 38.7508 24.3012 37.8842 25.2991C37.0176 26.2971 35.917 27.0479 34.6875 27.4798L34.5133 27.5434Z" fill="#27272F" fill-opacity="0.2"/>
</svg>
