<svg width="18" height="12" viewBox="0 0 18 12" fill="none" xmlns="http://www.w3.org/2000/svg">
<path d="M16.7195 1.90625C17.0945 3.21875 17.0945 6.03125 17.0945 6.03125C17.0945 6.03125 17.0945 8.8125 16.7195 10.1562C16.532 10.9062 15.9383 11.4688 15.2195 11.6562C13.8758 12 8.56328 12 8.56328 12C8.56328 12 3.21953 12 1.87578 11.6562C1.15703 11.4688 0.563282 10.9062 0.375782 10.1562C0.000782013 8.8125 0.000782013 6.03125 0.000782013 6.03125C0.000782013 6.03125 0.000782013 3.21875 0.375782 1.90625C0.563282 1.15625 1.15703 0.5625 1.87578 0.375C3.21953 0 8.56328 0 8.56328 0C8.56328 0 13.8758 0 15.2195 0.375C15.9383 0.5625 16.532 1.15625 16.7195 1.90625ZM6.81328 8.5625L11.2508 6.03125L6.81328 3.5V8.5625Z" fill="white"/>
</svg>
