<svg width="30" height="30" viewBox="0 0 30 30" fill="none" xmlns="http://www.w3.org/2000/svg">
<rect width="30" height="30" rx="15" fill="#CD201F"/>
<path d="M22.8443 11.0371C23.1959 12.2676 23.1959 14.9043 23.1959 14.9043C23.1959 14.9043 23.1959 17.5117 22.8443 18.7715C22.6685 19.4746 22.1119 20.002 21.4381 20.1777C20.1783 20.5 15.1978 20.5 15.1978 20.5C15.1978 20.5 10.1881 20.5 8.92831 20.1777C8.25448 20.002 7.69784 19.4746 7.52206 18.7715C7.1705 17.5117 7.1705 14.9043 7.1705 14.9043C7.1705 14.9043 7.1705 12.2676 7.52206 11.0371C7.69784 10.334 8.25448 9.77734 8.92831 9.60156C10.1881 9.25 15.1978 9.25 15.1978 9.25C15.1978 9.25 20.1783 9.25 21.4381 9.60156C22.1119 9.77734 22.6685 10.334 22.8443 11.0371ZM13.5572 17.2773L17.7174 14.9043L13.5572 12.5312V17.2773Z" fill="white"/>
</svg>
